<?xml version="1.0" encoding="UTF-8"?>
<svg xmlns="http://www.w3.org/2000/svg" xmlns:xlink="http://www.w3.org/1999/xlink" width="375pt" height="374.999991pt" viewBox="0 0 375 374.999991" version="1.2">
<defs>
<clipPath id="clip1">
  <path d="M 94.074219 94.074219 L 280.824219 94.074219 L 280.824219 280.824219 L 94.074219 280.824219 Z M 94.074219 94.074219 "/>
</clipPath>
</defs>
<g id="surface1">
<path style=" stroke:none;fill-rule:nonzero;fill:rgb(34.509277%,50.588989%,34.118652%);fill-opacity:1;" d="M 275.511719 187.464844 C 275.511719 236.089844 236.089844 275.511719 187.464844 275.511719 C 138.839844 275.511719 99.417969 236.089844 99.417969 187.464844 C 99.417969 138.839844 138.839844 99.417969 187.464844 99.417969 C 236.089844 99.417969 275.511719 138.839844 275.511719 187.464844 "/>
<g clip-path="url(#clip1)" clip-rule="nonzero">
<path style=" stroke:none;fill-rule:nonzero;fill:rgb(100%,100%,100%);fill-opacity:1;" d="M 187.464844 104.757812 C 141.859375 104.757812 104.757812 141.859375 104.757812 187.464844 C 104.757812 233.070312 141.859375 270.171875 187.464844 270.171875 C 233.070312 270.171875 270.175781 233.070312 270.175781 187.464844 C 270.175781 141.859375 233.070312 104.757812 187.464844 104.757812 Z M 187.464844 280.847656 C 135.972656 280.847656 94.082031 238.957031 94.082031 187.464844 C 94.082031 135.972656 135.972656 94.082031 187.464844 94.082031 C 238.957031 94.082031 280.847656 135.972656 280.847656 187.464844 C 280.847656 238.957031 238.957031 280.847656 187.464844 280.847656 "/>
</g>
<path style=" stroke:none;fill-rule:nonzero;fill:rgb(100%,100%,100%);fill-opacity:1;" d="M 208.578125 199.398438 L 227.820312 199.398438 L 204.441406 172.128906 L 217.597656 172.128906 L 194.585938 146.5625 L 202.261719 146.5625 L 186.917969 126.109375 L 171.578125 146.5625 L 179.261719 146.5625 L 156.253906 172.128906 L 169.40625 172.128906 L 146.035156 199.398438 L 165.269531 199.398438 L 140.925781 230.0625 L 176.691406 230.0625 L 176.691406 248.820312 L 197.140625 248.820312 L 197.140625 230.0625 L 232.9375 230.0625 L 208.578125 199.398438 "/>
</g>
</svg>
